<svg width="24" height="24" viewBox="0 0 24 24" fill="none" xmlns="http://www.w3.org/2000/svg">
<g id="user (4)">
<path id="Vector" d="M20.9116 17.1989C19.6628 15.9919 18.031 15.3099 16.3 15.2678V13.2557C17.1438 12.2484 17.6049 10.9854 17.6049 9.66072V6.6049C17.6049 3.51434 15.0905 1 12 1C8.9094 1 6.39505 3.51434 6.39505 6.6049V9.66072C6.39505 10.9854 6.85613 12.2484 7.69989 13.2557V15.2678C5.96889 15.3099 4.33708 15.9919 3.0883 17.1989C2.78417 17.4928 2.73918 17.9644 2.98223 18.3107C5.04405 21.247 8.41525 23 12 23C15.5848 23 18.9559 21.247 21.0177 18.3105C21.2607 17.9644 21.2157 17.4928 20.9116 17.1989ZM8.1138 6.6049C8.1138 4.46201 9.85723 2.71875 12 2.71875C14.1429 2.71875 15.8861 4.46201 15.8861 6.6049V9.66072C15.8861 10.6629 15.5058 11.6145 14.8151 12.3397C14.0739 13.1182 13.0742 13.5469 12 13.5469C10.9257 13.5469 9.92604 13.1182 9.18483 12.3399C8.49431 11.6145 8.1138 10.6629 8.1138 9.66072V6.6049ZM12 21.2812C9.2377 21.2812 6.62567 20.0477 4.86748 17.9466C5.73844 17.3219 6.78127 16.9844 7.87126 16.9844H8.55927C9.03394 16.9844 9.41864 16.5997 9.41864 16.125V14.6402C10.2048 15.0493 11.0837 15.2656 12 15.2656C12.9164 15.2656 13.7951 15.0493 14.5813 14.6402V16.125C14.5813 16.5997 14.966 16.9844 15.4406 16.9844H16.1288C17.2186 16.9844 18.2615 17.3219 19.1324 17.9466C17.3744 20.0477 14.7622 21.2812 12 21.2812Z" fill="#0094FF"/>
</g>
</svg>
